<?xml version="1.0" encoding="utf-8"?>
<!-- Generator: Adobe Illustrator 19.1.0, SVG Export Plug-In . SVG Version: 6.00 Build 0)  -->
<svg version="1.1" id="Layer_1" xmlns="http://www.w3.org/2000/svg" xmlns:xlink="http://www.w3.org/1999/xlink" x="0px" y="0px"
	 viewBox="-447 247.8 65 67.2" style="enable-background:new -447 247.8 65 67.2;" xml:space="preserve">
<style type="text/css">
	.st0{fill:#475461;}
</style>
<g id="Paper_Dollar">
	<g>
		<path class="st0" d="M-414.2,263c-4.3,0-7.8,3.5-7.8,7.8c0,4.3,3.5,7.8,7.8,7.8c4.3,0,7.8-3.5,7.8-7.8
			C-406.4,266.5-410,263-414.2,263z M-414.2,276.8c-3.3,0-6.1-2.7-6.1-6.1c0-3.4,2.7-6.1,6.1-6.1c3.4,0,6.1,2.7,6.1,6.1
			C-408.1,274.1-410.9,276.8-414.2,276.8z M-424.9,263h-1.9c-0.5,0-1,0.4-1,1c0,0.5,0.4,1,1,1h1.9c0.5,0,1-0.4,1-1
			S-424.4,263-424.9,263z M-394.9,259.1h-38.7c-1.1,0-1.9,0.9-1.9,1.9v19.4c0,1.1,0.9,1.9,1.9,1.9h38.8c1.1,0,1.9-0.9,1.9-1.9v-19.3
			C-392.9,260-393.8,259.1-394.9,259.1z M-432.7,261.1c0.5,0,1,0.4,1,1c0,0.5-0.4,1-1,1c-0.6,0-1-0.4-1-1
			C-433.6,261.5-433.2,261.1-432.7,261.1z M-432.7,280.5c-0.5,0-1-0.4-1-1c0-0.5,0.4-1,1-1c0.6,0,1,0.4,1,1
			C-431.7,280-432.1,280.5-432.7,280.5z M-395.8,280.5c-0.5,0-1-0.4-1-1c0-0.5,0.4-1,1-1c0.6,0,1,0.4,1,1
			C-394.9,280-395.3,280.5-395.8,280.5z M-394.9,276.8c-0.3-0.1-0.6-0.2-1-0.2c-1.6,0-2.9,1.3-2.9,2.9c0,0.3,0.1,0.7,0.2,1h-31.3
			c0.1-0.3,0.2-0.6,0.2-1c0-1.6-1.3-2.9-2.9-2.9c-0.3,0-0.7,0.1-1,0.2v-12c0.3,0.1,0.6,0.2,1,0.2c1.6,0,2.9-1.3,2.9-2.9
			c0-0.3-0.1-0.7-0.2-1h31.4c-0.1,0.3-0.2,0.6-0.2,1c0,1.6,1.3,2.9,2.9,2.9c0.3,0,0.7-0.1,1-0.2v12H-394.9z M-395.8,263
			c-0.5,0-1-0.4-1-1c0-0.5,0.4-1,1-1c0.6,0,1,0.4,1,1C-394.9,262.6-395.3,263-395.8,263z M-401.6,276.6h-1.9c-0.5,0-1,0.4-1,1
			s0.4,1,1,1h1.9c0.5,0,1-0.4,1-1S-401.1,276.6-401.6,276.6z"/>
	</g>
</g>
<g>
	<path class="st0" d="M-431,287.3c0.5,0,1,0.5,1,1v9.2c0,0.6-0.5,1-1,1h-4.4c-0.5,0-1-0.4-1-1v-9.2c0-0.5,0.5-1,1-1H-431
		 M-432.5,291.1c0.7,0,1.3-0.6,1.3-1.3c0-0.7-0.6-1.3-1.3-1.3s-1.3,0.6-1.3,1.3C-433.8,290.6-433.2,291.1-432.5,291.1 M-431,285.3
		h-4.4c-1.7,0-3,1.3-3,3v9.2c0,1.7,1.3,3,3,3h4.4c1.7,0,3-1.3,3-3v-9.2C-428,286.7-429.3,285.3-431,285.3L-431,285.3z"/>
</g>
<g>
	<path class="st0" d="M-421.1,287.1c0.5,0,1.1,0,1.7,0.1c2,0.3,5.2,1.9,7.1,2.8c3.9,1.8,6.7,3.5,6.1,4.9c-0.4,0.9-1.5,1.3-2.9,1.3
		c-1.1,0-2.3-0.2-3.6-0.6c-2.8-0.8-5.3-1.6-6.2-2c0.8,0.5,3.2,1.9,6.2,2.8c1.5,0.4,2.8,0.6,3.9,0.6c1.9,0,3.2-0.6,3.7-1.8
		c0.2-0.5,0.2-1,0-1.5c-0.1-0.2-0.2-0.4-0.3-0.6c0.9-0.2,2.1-0.6,3.4-1.1c3.5-1.4,7.8-3.5,10-3.5c0.7,0,1.2,0.2,1.4,0.6
		c1,2-3.5,4.6-10.6,8.5c-3.6,2-8.3,4.3-11.1,4.3h-0.1c-2.2-0.1-4.1-0.6-6.4-1.7c-0.8-0.4-1.6-0.8-2.3-1.2l0,0c0,0-0.1,0-0.1-0.1
		c-0.1,0-0.1-0.1-0.2-0.1c-1.7-0.9-3.8-1.4-6.2-1.6v-8.8c0.9-0.2,1.9-0.5,2.9-0.8C-423.8,287.3-422.5,287.1-421.1,287.1
		 M-421.1,285.1c-1.5,0-3,0.2-4.4,0.7c-1,0.3-1.9,0.6-2.8,0.8c-0.9,0.2-1.5,1-1.5,1.9v8.8c0,1,0.8,1.9,1.8,2
		c2.4,0.3,4.2,0.7,5.5,1.4l0.1,0.1h0.1h0.1h0.1c0.7,0.4,1.5,0.8,2.4,1.2c2.7,1.3,4.8,1.9,7.2,1.9c0.1,0,0.1,0,0.2,0
		c2.6,0,6.6-1.5,12.1-4.5c3.8-2.1,6.6-3.7,8.5-5.1c1.1-0.8,4.3-3.2,2.8-6.1c-0.3-0.6-1.2-1.7-3.2-1.7c-2.1,0-5.1,1.3-8.3,2.6
		c-0.8,0.4-1.7,0.7-2.5,1c-1.1,0.4-2.1,0.8-3.1,1l0,0c-1.6-1.3-3.8-2.3-5.4-3.1c-0.4-0.2-0.8-0.4-1.2-0.6c-2-1-4.5-2.2-6.5-2.4
		C-419.8,285.1-420.5,285.1-421.1,285.1L-421.1,285.1z"/>
</g>
</svg>
