<?xml version="1.0" encoding="utf-8"?>
<!-- Generator: Adobe Illustrator 19.1.0, SVG Export Plug-In . SVG Version: 6.00 Build 0)  -->
<svg version="1.1" id="icons" xmlns="http://www.w3.org/2000/svg" xmlns:xlink="http://www.w3.org/1999/xlink" x="0px" y="0px"
	 viewBox="-401 392 8.6 10" style="enable-background:new -401 392 8.6 10;" xml:space="preserve">
<style type="text/css">
	.st0{display:none;}
	.st1{display:inline;}
	.st2{fill:#475561;}
	.st3{fill:none;}
	.st4{enable-background:new    ;}
</style>
<g class="st0">
	<path class="st1" d="M-1194.4,1179.7v5.9c0,0.3-0.2,0.5-0.5,0.5h-7.6c-0.3,0-0.5-0.2-0.5-0.5v-9c0-0.3,0.2-0.5,0.5-0.5h4.5v3
		c0,0.3,0.2,0.5,0.5,0.5L-1194.4,1179.7L-1194.4,1179.7z M-1196.6,1180.6c0-0.1-0.1-0.2-0.2-0.2h-3.9c-0.1,0-0.2,0.1-0.2,0.2v0.4
		c0,0.1,0.1,0.2,0.2,0.2h3.9c0.1,0,0.2-0.1,0.2-0.2V1180.6z M-1196.6,1182c0-0.1-0.1-0.2-0.2-0.2h-3.9c-0.1,0-0.2,0.1-0.2,0.2v0.4
		c0,0.1,0.1,0.2,0.2,0.2h3.9c0.1,0,0.2-0.1,0.2-0.2V1182z M-1196.6,1183.4c0-0.1-0.1-0.2-0.2-0.2h-3.9c-0.1,0-0.2,0.1-0.2,0.2v0.4
		c0,0.1,0.1,0.2,0.2,0.2h3.9c0.1,0,0.2-0.1,0.2-0.2V1183.4z M-1194.6,1179h-2.7v-2.7c0.1,0,0.1,0.1,0.2,0.2l2.3,2.3
		C-1194.7,1178.8-1194.7,1178.9-1194.6,1179z"/>
</g>
<g class="st0">
	<path class="st1" d="M-1194.4,1179.1v6.4c0,0.3-0.2,0.5-0.5,0.5h-7.6c-0.3,0-0.5-0.2-0.5-0.5v-8.9c0-0.3,0.2-0.5,0.5-0.5h5
		c0.3,0,0.7,0.2,0.9,0.4l1.7,1.7C-1194.6,1178.4-1194.4,1178.8-1194.4,1179.1z M-1195.1,1179.7h-2.4c-0.3,0-0.5-0.3-0.5-0.6v-2.3
		h-4.3v8.6h7.1L-1195.1,1179.7L-1195.1,1179.7z M-1200.7,1180.4h3.9c0.1,0,0.2,0.1,0.2,0.2v0.4c0,0.1-0.1,0.2-0.2,0.2h-3.9
		c-0.1,0-0.2-0.1-0.2-0.2v-0.4C-1200.9,1180.5-1200.8,1180.4-1200.7,1180.4z M-1196.6,1182v0.4c0,0.1-0.1,0.2-0.2,0.2h-3.9
		c-0.1,0-0.2-0.1-0.2-0.2v-0.4c0-0.1,0.1-0.2,0.2-0.2h3.9C-1196.6,1181.8-1196.6,1181.9-1196.6,1182z M-1196.6,1183.4v0.4
		c0,0.1-0.1,0.2-0.2,0.2h-3.9c-0.1,0-0.2-0.1-0.2-0.2v-0.4c0-0.1,0.1-0.2,0.2-0.2h3.9C-1196.6,1183.2-1196.6,1183.3-1196.6,1183.4z
		 M-1197.3,1179h2.1c0-0.1-0.1-0.2-0.1-0.2l-1.8-1.8c0,0-0.1-0.1-0.2-0.1V1179z"/>
</g>
<g>
	<path class="st2" d="M-1194.8,1181.4v0.7c0,0.2-0.1,0.4-0.2,0.5c-0.1,0.1-0.3,0.2-0.5,0.2h-3.9l1.6,1.6c0.1,0.1,0.2,0.3,0.2,0.5
		s-0.1,0.4-0.2,0.5l-0.4,0.4c-0.1,0.1-0.3,0.2-0.5,0.2s-0.4-0.1-0.5-0.2l-3.6-3.6c-0.1-0.1-0.2-0.3-0.2-0.5s0.1-0.4,0.2-0.5l3.6-3.6
		c0.1-0.1,0.3-0.2,0.5-0.2s0.4,0.1,0.5,0.2l0.4,0.4c0.1,0.1,0.2,0.3,0.2,0.5s-0.1,0.4-0.2,0.5l-1.6,1.6h3.9c0.2,0,0.4,0.1,0.5,0.2
		C-1194.8,1181-1194.8,1181.2-1194.8,1181.4z"/>
</g>
<rect x="-401" y="392" class="st3" width="8.6" height="9.9"/>
<g class="st4">
	<path d="M-392.7,397.2v0.7c0,0.2-0.1,0.4-0.2,0.5s-0.3,0.2-0.5,0.2h-3.9l1.6,1.6c0.1,0.1,0.2,0.3,0.2,0.5s-0.1,0.4-0.2,0.5
		l-0.4,0.4c-0.1,0.1-0.3,0.2-0.5,0.2c-0.2,0-0.4-0.1-0.5-0.2l-3.6-3.6c-0.1-0.1-0.2-0.3-0.2-0.5c0-0.2,0.1-0.4,0.2-0.5l3.6-3.6
		c0.1-0.1,0.3-0.2,0.5-0.2c0.2,0,0.4,0.1,0.5,0.2l0.4,0.4c0.1,0.1,0.2,0.3,0.2,0.5s-0.1,0.4-0.2,0.5l-1.6,1.6h3.9
		c0.2,0,0.4,0.1,0.5,0.2S-392.7,397-392.7,397.2z"/>
</g>
</svg>
